<?xml version="1.0" standalone="no"?>
<!DOCTYPE svg PUBLIC "-//W3C//DTD SVG 20010904//EN"
 "http://www.w3.org/TR/2001/REC-SVG-20010904/DTD/svg10.dtd">
<svg version="1.0" xmlns="http://www.w3.org/2000/svg"
 width="940.000000pt" height="940.000000pt" viewBox="0 0 940.000000 940.000000"
 preserveAspectRatio="xMidYMid meet">
<metadata>
Created by potrace 1.14, written by Peter Selinger 2001-2017
</metadata>
<g transform="translate(0.000000,940.000000) scale(0.100000,-0.100000)"
fill="#000000" stroke="none">
<path d="M3671 6223 c-6 -21 -15 -60 -21 -88 -7 -27 -13 -57 -16 -65 -2 -8
-12 -51 -22 -95 l-19 -80 379 1 c286 1 378 -1 378 -10 0 -7 -18 -95 -40 -197
-21 -101 -42 -199 -45 -218 -3 -19 -8 -38 -10 -41 -3 -4 -7 -25 -10 -46 -4
-22 -8 -47 -11 -56 -3 -10 -8 -30 -10 -45 -3 -16 -16 -78 -29 -140 -14 -61
-26 -122 -29 -135 -2 -13 -19 -88 -36 -168 -17 -80 -34 -156 -36 -170 -8 -39
-72 -339 -109 -510 -18 -85 -41 -189 -49 -230 -9 -41 -27 -129 -41 -195 -33
-149 -33 -150 -69 -330 -3 -11 -10 -42 -16 -70 -24 -102 -24 -115 2 -116 117
-4 1000 0 1005 4 3 4 14 46 24 94 11 48 22 99 25 113 22 102 162 765 170 805
2 11 13 61 24 110 10 50 65 304 120 565 55 261 105 495 111 520 6 25 26 119
44 210 19 91 39 180 44 198 5 17 7 32 4 32 -3 0 0 6 6 14 9 11 82 13 391 12
209 0 380 1 380 4 0 3 16 73 35 155 20 83 38 162 40 178 l5 27 -1279 0 -1280
0 -10 -37z"/>
<path d="M6547 6243 c-10 -35 -85 -379 -101 -463 -12 -60 -58 -280 -80 -383
-30 -135 -83 -382 -90 -417 -2 -14 -20 -100 -40 -192 -20 -92 -38 -178 -40
-190 -3 -13 -21 -99 -41 -193 -20 -93 -39 -181 -41 -195 -3 -14 -7 -33 -10
-42 -3 -9 -7 -27 -9 -40 -3 -13 -9 -45 -15 -73 -6 -27 -12 -59 -14 -70 -2 -11
-11 -51 -20 -90 -9 -38 -18 -81 -20 -95 -3 -14 -23 -110 -45 -214 -23 -104
-43 -199 -45 -210 -3 -12 -11 -51 -19 -88 -13 -62 -13 -68 2 -69 21 -1 970 -1
997 0 22 1 20 -6 85 296 16 77 32 154 35 170 3 17 9 46 14 65 10 36 76 346 84
390 8 46 18 80 25 81 3 1 107 2 231 4 275 3 360 11 530 47 613 130 956 538
964 1148 5 297 -73 496 -244 630 -57 45 -75 56 -129 80 -55 26 -180 68 -222
75 -18 3 -35 7 -38 9 -3 2 -33 7 -66 10 -33 4 -73 9 -90 12 -89 14 -188 17
-837 21 -678 4 -706 4 -711 -14z m1288 -323 c90 -34 130 -133 129 -315 0 -69
-10 -196 -19 -245 -2 -14 -11 -65 -19 -115 -43 -249 -149 -496 -263 -611 -29
-29 -65 -59 -80 -67 -48 -25 -130 -37 -250 -37 -114 0 -115 0 -110 23 3 12 27
119 52 237 25 118 59 276 75 350 40 184 78 360 84 390 2 14 10 48 16 75 6 28
13 59 16 70 23 118 47 224 54 241 8 20 14 21 147 18 76 -1 152 -7 168 -14z"/>
<path d="M1365 6213 c-100 -23 -202 -94 -260 -181 -30 -45 -65 -137 -65 -169
0 -22 -11 -28 -61 -37 -34 -5 -108 -41 -134 -63 -114 -99 -142 -288 -59 -399
l23 -31 -52 -12 c-246 -57 -341 -365 -172 -555 l35 -39 -29 -15 c-44 -21 -106
-84 -132 -133 -34 -66 -36 -187 -4 -252 28 -59 66 -101 122 -133 l41 -25 -34
-50 c-43 -64 -57 -117 -52 -199 8 -135 97 -242 236 -284 15 -5 22 -15 22 -33
0 -71 56 -216 108 -278 39 -47 117 -102 180 -126 51 -19 78 -22 249 -23 204
-2 261 5 342 47 55 27 153 122 170 165 l13 32 28 -42 c66 -104 177 -179 288
-197 27 -4 130 -7 228 -6 205 3 255 15 353 89 91 68 166 210 173 326 2 38 4
40 50 56 56 18 151 100 172 148 40 89 45 161 18 246 -15 44 -49 102 -64 108
-17 8 -6 23 30 41 118 60 184 215 146 341 -19 62 -76 136 -133 171 l-48 30 34
37 c66 72 99 186 81 285 -24 129 -124 236 -251 268 -45 11 -47 13 -32 29 42
47 70 186 50 251 -38 123 -128 208 -237 225 -51 8 -68 19 -68 45 0 11 -12 51
-27 90 -49 125 -180 232 -315 257 -172 33 -353 -47 -448 -196 l-28 -42 -11 28
c-17 41 -79 106 -140 146 -95 64 -218 86 -336 59z m175 -99 c88 -15 182 -93
227 -190 l28 -59 1 -1150 c1 -1240 3 -1200 -51 -1284 -48 -76 -132 -132 -221
-148 -67 -12 -362 -8 -397 6 -17 6 -27 18 -27 30 0 26 38 61 66 61 46 0 70 53
38 84 -42 42 -167 -13 -198 -87 -8 -20 -60 50 -84 112 -11 31 -24 75 -27 98
l-6 41 207 0 c190 -1 208 1 221 18 18 25 16 48 -5 67 -16 14 -50 16 -263 16
-206 -1 -251 1 -284 15 -173 73 -179 312 -10 387 29 13 69 19 130 20 93 1 130
11 140 37 5 14 -18 61 -33 63 -4 1 -75 2 -158 3 -132 2 -156 5 -196 25 -121
58 -142 222 -41 311 50 44 76 52 182 56 70 3 99 8 113 20 41 38 11 78 -67 89
-210 27 -294 262 -145 406 60 59 110 72 263 68 119 -4 146 3 143 39 -2 33 -22
52 -59 57 -177 23 -254 229 -130 347 53 51 89 58 268 59 153 1 168 -1 211 -23
67 -33 114 -105 114 -174 0 -29 41 -58 69 -49 58 18 30 159 -50 250 -65 74
-132 98 -279 100 -85 1 -85 1 -83 27 3 44 40 113 88 162 48 50 108 82 178 95
41 8 57 7 127 -5z m844 -24 c64 -31 132 -100 162 -163 42 -91 40 -93 -78 -95
-89 -2 -110 -6 -163 -30 -73 -35 -120 -81 -150 -147 -25 -54 -39 -133 -27
-151 4 -6 17 -16 29 -22 26 -14 60 10 67 48 16 93 45 138 109 173 38 20 59 22
214 25 163 3 175 2 218 -19 42 -21 103 -92 106 -123 9 -88 2 -129 -33 -178
-33 -47 -108 -84 -179 -87 -23 -1 -38 -41 -26 -68 12 -27 2 -26 157 -23 108 1
132 -1 174 -19 162 -70 199 -269 72 -392 -39 -38 -81 -55 -156 -64 -24 -3 -49
-10 -56 -16 -20 -17 -23 -48 -6 -69 14 -16 33 -20 117 -23 110 -4 142 -15 193
-68 91 -93 65 -241 -53 -302 -35 -17 -60 -20 -196 -21 -168 -2 -189 -7 -189
-52 0 -38 35 -52 130 -53 47 -1 101 -6 120 -13 118 -38 173 -166 121 -284 -25
-55 -50 -79 -109 -106 -39 -18 -67 -19 -288 -19 -236 0 -245 -1 -264 -22 -24
-26 -25 -29 -2 -57 18 -22 23 -22 221 -22 l203 0 -6 -49 c-8 -58 -38 -131 -72
-176 -29 -39 -36 -40 -49 -11 -6 12 -27 35 -48 52 -72 57 -177 33 -144 -34 8
-16 25 -27 50 -33 34 -8 58 -32 63 -64 4 -24 -71 -37 -231 -38 -228 -2 -284
14 -374 105 -32 32 -57 71 -72 108 l-22 57 -1 1120 c-1 616 2 1144 6 1173 20
127 111 232 238 273 49 16 172 5 224 -21z"/>
<path d="M1040 5590 c-15 -15 -19 -28 -14 -43 10 -36 19 -39 94 -42 113 -4
113 -5 115 -222 1 -98 -3 -189 -7 -202 -17 -47 -31 -50 -230 -51 -174 0 -189
-1 -208 -20 -25 -25 -25 -32 -2 -60 18 -22 23 -23 213 -22 207 0 235 5 283 50
38 36 48 64 51 151 2 40 6 75 9 78 2 3 30 5 62 4 66 0 86 -14 103 -71 14 -48
50 -63 81 -35 23 21 25 53 6 98 -34 79 -96 114 -198 112 -32 0 -58 2 -59 5 0
3 -1 42 -3 87 -5 139 -58 193 -197 200 -69 4 -80 2 -99 -17z"/>
<path d="M1362 4818 c-13 -13 -16 -47 -4 -64 4 -6 29 -18 57 -26 63 -17 95
-60 95 -127 0 -100 -17 -113 -147 -116 -51 -1 -94 1 -94 4 -1 3 -3 22 -5 41
-1 19 -5 54 -9 78 -15 103 -176 185 -216 111 -15 -29 10 -63 59 -77 47 -14 65
-47 60 -113 l-3 -44 -178 0 c-161 0 -180 -2 -192 -19 -16 -21 -11 -57 10 -73
19 -13 668 -12 698 1 16 8 17 -3 17 -153 0 -125 -3 -169 -15 -191 -17 -33 -61
-60 -99 -60 -23 0 -24 3 -25 63 0 35 -5 75 -10 89 -37 96 -184 156 -210 85
-14 -37 -1 -56 47 -70 56 -15 72 -40 72 -114 l0 -53 -214 0 c-182 0 -217 -2
-230 -16 -20 -19 -20 -44 -2 -69 12 -17 32 -18 312 -17 248 1 305 4 337 17
l37 15 0 -157 c0 -194 -7 -212 -94 -237 -45 -13 -57 -21 -62 -42 -9 -36 20
-64 66 -64 37 0 109 38 142 76 49 56 49 62 50 628 0 582 1 575 -60 640 -51 54
-159 85 -190 54z"/>
<path d="M2488 5596 c-35 -15 -76 -53 -94 -88 -8 -16 -15 -63 -17 -110 l-2
-82 -76 -2 c-95 -2 -138 -26 -174 -99 -27 -54 -26 -92 2 -112 38 -28 62 -14
82 50 16 47 35 57 109 57 l60 0 -2 -52 c-3 -110 29 -179 98 -212 29 -13 68
-17 208 -17 95 0 185 0 200 0 50 2 71 46 39 85 -11 14 -41 16 -197 16 -190 0
-228 7 -239 41 -5 15 -7 319 -3 382 2 31 44 50 114 52 70 3 94 16 94 50 0 40
-29 54 -105 53 -39 -1 -82 -6 -97 -12z"/>
<path d="M2247 4820 c-44 -13 -95 -57 -120 -103 -22 -42 -22 -44 -24 -583 l-3
-540 28 -55 c43 -85 151 -142 211 -110 44 24 20 86 -38 96 -24 4 -49 18 -67
36 l-29 30 -1 157 c-1 86 1 161 3 165 3 4 10 4 16 -1 25 -20 79 -23 360 -23
284 -1 292 0 308 20 18 22 15 56 -5 69 -6 4 -108 9 -226 12 l-215 5 2 59 c2
65 18 91 63 101 15 3 36 15 46 26 17 19 17 23 3 47 -8 15 -25 29 -38 30 -36 6
-108 -26 -135 -59 -27 -31 -48 -95 -46 -132 5 -63 1 -77 -26 -77 -37 0 -81 29
-96 64 -7 19 -12 87 -13 188 -1 140 1 158 14 151 9 -4 168 -7 354 -8 324 0
339 1 353 19 14 20 11 52 -7 71 -6 5 -84 10 -182 11 -95 1 -175 2 -178 3 -3 0
-5 26 -4 56 3 65 19 87 74 104 44 13 55 30 41 65 -24 64 -140 30 -195 -57 -16
-25 -22 -66 -25 -153 0 -20 -5 -21 -101 -19 -137 3 -151 20 -141 161 3 32 47
70 97 83 55 14 74 41 50 77 -17 26 -53 30 -108 14z"/>
</g>
</svg>
